<svg width="200" height="200" viewBox="0 0 200 200" fill="none" xmlns="http://www.w3.org/2000/svg">
<path d="M100 200C155.228 200 200 155.228 200 100C200 44.7715 155.228 0 100 0C44.7715 0 0 44.7715 0 100C0 155.228 44.7715 200 100 200Z" fill="white"/>
<path d="M90.1672 19.5306L98.9137 18.656L110.284 18H119.687L127.559 18.4373L134.337 19.312C156.859 21.9359 161.451 43.5836 161.451 62.3886C161.451 64.5753 161.451 69.8232 158.171 69.8232H135.649C132.806 69.8232 132.588 65.8872 132.369 63.9193C132.15 63.0446 131.932 58.89 131.713 57.7967C131.057 53.4234 129.527 51.8928 124.935 50.7995C122.092 50.1435 119.249 50.1435 116.407 50.1435H110.94H105.692C101.538 50.1435 88.8552 51.4555 88.8552 56.0474C89.7298 55.6101 92.3538 54.7354 93.2284 54.7354H93.4471L87.7619 59.1087C87.5432 59.3273 87.1059 62.6073 87.1059 62.8259L99.1324 53.8608H101.975H102.631L86.6686 65.6686L86.4499 69.3858V101.529C87.3245 99.5613 88.6365 98.6867 90.8232 98.6867L86.4499 101.967V105.465L95.4151 98.6867H98.9137L86.4499 108.089V109.183C86.4499 109.183 86.4499 110.713 86.6686 111.369L100.882 100.655V103.279L86.6686 113.993V114.43C86.6686 115.305 86.6686 116.398 86.8872 117.054L100.882 106.777V109.183L87.1059 119.678V120.116L87.3245 122.74C87.5432 122.74 87.5432 122.521 87.5432 122.521L101.1 112.462C101.319 113.118 101.538 113.774 101.975 114.43L87.7619 125.145C87.7619 125.145 87.9805 125.582 87.9805 126.02C88.1992 126.457 88.4179 127.113 88.8552 127.769L104.162 116.18H107.66L91.4791 128.206H89.7298H89.0739C89.0739 128.644 89.7298 129.518 89.9485 129.737C92.3538 133.017 96.7271 133.454 100.226 133.673C101.319 133.891 105.692 133.891 106.348 134.11H106.786C108.535 134.11 112.908 133.891 114.001 133.891V133.017L128.652 121.865V122.302C128.652 122.74 128.871 124.489 128.433 124.708L116.188 134.11C116.844 133.891 120.78 133.891 120.999 133.673L127.777 128.644C127.777 129.518 127.559 130.612 127.121 131.705C126.903 131.924 126.028 132.579 125.809 132.798C131.713 132.798 132.15 120.334 132.369 115.524V112.462H107.879C105.911 112.462 104.599 109.401 104.599 107.871V87.5349C104.599 85.5669 106.13 82.943 108.535 82.943H116.625L130.183 72.6658C131.057 73.3218 131.713 73.5404 132.588 73.5404L120.124 82.943H124.716L137.18 73.5404H140.678L128.215 82.943H132.806L142.865 75.2897H143.084V77.695L136.086 82.943H140.46C141.116 82.5056 142.646 81.4123 142.865 81.1937C142.865 81.8496 142.646 82.5056 142.646 82.943H157.734C159.702 82.943 161.67 85.1296 161.67 87.0976V117.929L161.014 129.3C159.483 161.443 137.836 166.254 110.284 166.254C88.8552 166.254 68.3009 164.067 61.085 139.795C59.117 133.891 58.0237 127.332 57.805 120.99L57.3677 111.588V72.0098L57.5864 63.9193L58.461 56.2661L59.5543 50.3621C62.397 34.3997 73.7674 21.2799 90.1672 19.5306ZM46.8719 51.2368L60.6476 40.9596C59.9917 42.0529 59.3357 43.3649 58.8983 44.6769L44.6852 55.3914C44.9039 54.7354 46.4345 51.4555 46.8719 51.2368ZM42.9359 60.202L56.9304 49.4875H57.149L56.2744 52.5488L41.8426 63.4819L42.7173 60.202H42.9359ZM94.5404 65.8872H91.2605L107.223 53.8608H110.721L94.5404 65.8872ZM99.351 65.8872H99.1324L115.313 53.8608C116.407 53.8608 117.5 53.8608 118.375 54.0794L102.412 65.8872H101.975H101.319H99.351ZM106.348 66.5432L121.873 54.7354H122.092C122.092 54.7354 122.748 54.7354 122.748 54.9541C122.967 54.9541 124.497 55.1727 124.497 55.6101L108.972 67.1992C108.754 67.1992 108.316 67.1992 108.316 66.9805C108.098 66.9805 106.786 66.7619 106.567 66.5432H106.348ZM40.312 70.4792V70.2605L40.7493 67.8552L41.1866 67.4179L55.1811 56.922L55.3997 56.7034L54.9624 59.3273C54.9624 59.546 54.9624 59.7647 54.7437 59.7647L40.312 70.4792ZM111.596 68.7299V68.5112L126.684 57.3594H126.903C127.121 57.578 127.996 59.1087 127.777 59.1087L112.689 70.4792C112.471 70.0418 112.471 69.8232 112.252 69.6045C112.033 69.3858 111.377 68.9485 111.596 68.7299ZM113.345 73.3218L128.433 62.17C128.433 62.3886 128.652 64.1379 128.652 64.5753H128.433L113.783 75.7271C113.564 75.0711 113.345 73.7591 113.345 73.3218ZM39.8747 74.4151L54.5251 63.4819C54.5251 64.1379 54.5251 66.1059 54.3064 66.3246L39.8747 77.0391L39.656 77.2577C39.656 76.8204 39.656 74.6338 39.8747 74.4151ZM114.001 79.007L128.652 67.8552H128.871L129.308 70.0418L114.22 81.4123V81.1937C114.22 81.1937 114.001 79.8817 114.001 79.007ZM39.4373 80.7563L54.0878 69.8232C54.0878 70.2605 53.8691 72.2285 53.8691 72.2285L39.2187 83.3803V82.7243C39.2187 82.287 39 81.1937 39.4373 80.7563ZM53.8691 78.351L39 89.5028V87.0976C39 86.8789 39 86.8789 39.2187 86.6602L53.8691 75.7271V78.351ZM39 95.4068V92.7828L53.8691 81.8496V84.4736L39 95.4068ZM39 98.9054L53.8691 87.7535V90.3775L39 101.529V98.9054ZM39 104.809L53.8691 93.8761V96.5001L39 107.652V104.809ZM39 113.556V110.932L53.8691 99.9987V102.404L39 113.556ZM39 117.054L53.8691 105.903V108.527L39 119.678V117.054ZM39 122.958L53.8691 112.025V114.649L39 125.582V122.958ZM99.5697 128.206H96.0711L112.252 116.18H115.751L99.5697 128.206ZM104.162 128.206L120.343 116.18H123.623L107.66 128.206H104.162ZM114.001 128.206H112.252L128.433 116.18H128.871V118.366L114.001 129.518V128.206ZM39 129.081L53.8691 117.929V118.148V119.678V120.334L39.2187 131.486C39 130.83 39 130.174 39 129.518V129.081ZM39.2187 134.766L54.0878 123.614C54.3064 124.489 54.3064 125.145 54.3064 126.238L39.4373 137.39V136.953C39.4373 136.953 39.4373 135.859 39.2187 134.766ZM39.8747 140.451L54.7437 129.518C54.7437 129.518 54.9624 130.83 54.9624 131.705L40.0933 142.857C39.8747 142.201 39.8747 141.326 39.8747 140.451ZM125.809 133.017V132.798C125.591 132.798 125.591 133.017 125.809 133.017ZM40.5306 145.918L55.3997 134.766C55.6184 135.641 55.8371 137.171 55.8371 137.171L40.968 148.323L40.5306 145.918ZM41.4053 151.385V151.166L56.493 140.014V140.233L56.9304 141.982L42.0613 153.352C41.8426 152.478 41.4053 151.385 41.4053 151.385ZM42.7173 156.195L57.805 144.825C58.2424 145.481 58.6797 146.793 58.6797 146.793L43.5919 158.163H43.3733L42.7173 156.195ZM44.6852 160.787L59.5543 149.635L59.773 149.417V149.635L60.6476 151.385L45.5599 162.755C45.3412 162.536 44.9039 161.662 44.9039 161.443C44.6852 161.224 44.4666 160.787 44.6852 160.787ZM46.8719 165.16L61.9596 153.79C62.1783 154.008 63.0529 155.102 63.2716 155.539L47.9652 166.91C47.7465 166.691 47.0905 165.598 46.8719 165.16ZM49.4958 169.096L64.8022 157.726L66.3329 159.256L51.0265 170.627L50.3705 169.971L49.4958 169.096ZM52.9944 172.595L68.5195 161.006C68.9568 161.443 70.0502 162.318 70.0502 162.318L54.7437 173.907C54.5251 173.907 54.3064 173.688 54.3064 173.688C53.8691 173.251 52.9944 172.595 52.9944 172.595ZM57.149 175.437L72.6741 163.848L74.6421 164.942L59.117 176.749C58.2424 176.312 57.149 175.656 57.149 175.656V175.437ZM114.876 180.248L131.713 167.566C131.932 167.566 132.806 167.347 133.025 167.347L136.961 166.035C136.961 166.254 136.742 166.472 136.524 166.472L120.343 178.717C120.124 178.936 115.313 180.248 115.095 180.248H114.876ZM61.9596 178.061L77.7034 166.254L79.89 166.91H80.1087C80.1087 167.128 80.1087 167.128 79.89 167.128L64.3649 178.717C63.4903 178.499 62.6156 178.28 61.9596 178.061ZM67.6449 179.811V179.592L83.3886 168.003L83.6073 167.784L86.2312 168.44L70.4875 180.248C69.8315 180.248 67.8635 179.811 67.6449 179.811ZM105.036 181.56L121.217 169.315L125.591 168.878L109.191 181.123C108.972 181.341 105.911 181.56 105.692 181.56H105.036ZM74.2048 180.685L90.1672 168.878L93.0098 169.315L77.0474 181.341L74.2048 180.904V180.685ZM81.202 181.56L97.1644 169.752C97.1644 169.534 97.1644 169.534 97.3831 169.534C98.2577 169.534 99.351 169.752 100.444 169.752L84.4819 181.779C83.6073 181.779 81.6393 181.56 81.202 181.56ZM96.9457 181.779L113.127 169.752H115.532H116.188L100.226 181.779H99.351C99.351 181.779 97.6017 181.997 96.9457 181.779ZM92.3538 181.997H88.8552L104.818 169.971H108.316L92.3538 181.997Z" fill="#111111"/>
</svg>
